<svg class="h-16" id="outputsvg" xmlns="http://www.w3.org/2000/svg" style="transform: none; transform-origin: 50% 50%; cursor: move; max-height: none;" viewBox="0 0 6000 2000"><g id="l73bcl1jvcmbnHyaHnoxvGE" fill="rgb(0,0,0)" style="transform: none;"><g><path id="p8VCIvkdT" d="M5255 1311 c-24 -5 -30 -12 -30 -31 0 -17 5 -24 15 -21 33 9 88 5 104 -8 9 -7 16 -26 16 -41 0 -28 0 -28 -30 -13 -79 39 -156 -42 -130 -137 19 -70 83 -104 139 -76 17 9 31 12 31 6 0 -5 14 -10 30 -10 l30 0 0 119 c0 133 -11 176 -49 195 -35 18 -89 25 -126 17z m93 -163 c16 -16 16 -100 0 -116 -33 -33 -88 4 -88 58 0 54 55 91 88 58z"></path><path id="praTKrPGp" d="M2674 1209 c-74 -21 -107 -113 -62 -179 28 -41 83 -65 131 -56 29 5 33 10 30 29 -4 19 -10 22 -38 19 -43 -5 -75 25 -75 71 0 43 26 67 72 67 28 0 37 5 41 22 4 12 5 23 4 24 -11 8 -78 10 -103 3z"></path><path id="p15mx63YyF" d="M2893 1209 c-17 -5 -43 -24 -58 -41 -24 -28 -27 -39 -22 -81 6 -69 49 -112 112 -112 57 0 94 34 102 93 l6 42 -82 0 c-44 0 -81 4 -81 8 0 5 6 17 14 28 11 15 26 19 70 19 45 0 56 3 60 18 2 10 -1 20 -7 22 -34 10 -86 12 -114 4z m77 -151 c-1 -40 -50 -58 -79 -29 -32 32 -25 41 29 41 33 0 50 -4 50 -12z"></path><path id="p8ogN6ztf" d="M3405 1211 c-21 -4 -30 -12 -30 -26 0 -17 7 -20 50 -20 64 0 67 -20 7 -53 -56 -31 -71 -62 -48 -97 21 -33 61 -48 105 -41 41 6 43 8 35 30 -5 13 -14 16 -32 13 -60 -12 -75 34 -17 53 120 40 57 166 -70 141z"></path><path id="puIXKNNQC" d="M3672 1210 c-66 -15 -101 -80 -81 -152 29 -106 173 -114 207 -13 19 59 13 65 -73 65 -59 0 -75 3 -75 15 0 26 47 48 91 42 30 -4 42 -2 46 10 3 8 2 18 -3 22 -14 13 -76 19 -112 11z m68 -160 c0 -31 -36 -45 -66 -25 -40 26 -31 45 21 45 38 0 45 -3 45 -20z"></path><path id="pgbtaYDTw" d="M4412 1204 c-34 -14 -49 -48 -37 -84 9 -29 62 -60 103 -60 21 0 32 -5 32 -15 0 -24 -36 -37 -74 -26 -28 7 -36 6 -41 -7 -10 -26 12 -36 76 -37 54 0 63 3 85 28 21 25 24 37 24 118 l0 89 -29 0 c-16 0 -31 -6 -34 -12 -3 -10 -7 -10 -18 -2 -24 19 -55 22 -87 8z m82 -40 c10 -4 16 -18 16 -36 0 -27 -2 -29 -32 -26 -22 2 -34 9 -36 21 -8 40 13 56 52 41z"></path><path id="pSR6BbWUF" d="M4980 1213 c-31 -12 -50 -37 -50 -68 0 -44 37 -76 94 -82 52 -6 61 -26 22 -44 -18 -8 -33 -8 -56 -1 -25 9 -32 8 -36 -3 -3 -8 -3 -18 0 -24 11 -16 84 -23 121 -11 50 16 65 52 65 150 l0 80 -29 0 c-16 0 -31 -5 -33 -10 -2 -7 -16 -5 -40 5 -21 8 -39 15 -40 14 -2 0 -10 -3 -18 -6z m78 -55 c7 -7 12 -22 12 -35 0 -19 -5 -23 -29 -23 -35 0 -55 22 -46 50 7 22 44 27 63 8z"></path><path id="pz5qJQNnT" d="M5565 1204 c-22 -7 -41 -14 -42 -14 -1 0 -9 -13 -18 -30 -37 -71 -6 -160 63 -181 71 -21 126 16 139 94 l6 37 -82 0 c-86 0 -95 6 -60 41 18 18 29 21 70 16 44 -5 49 -4 49 14 0 11 -6 21 -12 23 -41 13 -78 13 -113 0z m85 -144 c0 -12 -37 -50 -48 -50 -16 0 -52 32 -52 46 0 10 13 14 50 14 28 0 50 -4 50 -10z"></path><path id="pINh1dHXL" d="M2210 1045 l0 -165 35 0 35 0 0 135 0 135 70 0 70 0 0 30 0 30 -105 0 -105 0 0 -165z"></path><path id="pwNnM97wB" d="M2460 1089 c0 -106 2 -120 16 -115 9 3 24 6 35 6 18 0 19 8 19 115 l0 115 -35 0 -35 0 0 -121z"></path><path id="p1FdgjIQbW" d="M3090 1095 l0 -115 25 0 c16 0 25 6 25 15 0 20 7 19 37 -5 36 -28 70 -25 104 9 28 28 29 33 29 120 l0 91 -35 0 -34 0 -3 -87 -3 -88 -30 -3 c-42 -5 -55 19 -55 105 l0 73 -30 0 -30 0 0 -115z"></path><path id="pAJbbbKD3" d="M3964 1093 c4 -65 9 -140 12 -166 l6 -48 46 3 c41 3 46 6 54 33 5 17 19 68 32 115 13 47 26 78 29 70 3 -8 19 -61 37 -118 l31 -102 44 0 44 0 5 53 c3 28 8 103 12 165 l6 112 -36 0 -35 0 -3 -137 c-2 -76 -6 -131 -10 -123 -3 8 -23 70 -44 138 -36 118 -39 123 -63 120 -24 -3 -28 -11 -60 -137 -19 -74 -36 -130 -37 -125 -2 5 -6 66 -9 137 l-7 127 -30 0 -30 0 6 -117z"></path><path id="pziVBJLqW" d="M4650 1095 l0 -115 30 0 c21 0 30 5 30 17 0 14 2 14 21 -3 31 -28 96 -25 120 5 16 19 19 40 19 117 l0 94 -30 0 -30 0 0 -73 c0 -86 -13 -110 -55 -105 l-30 3 -3 88 -3 87 -34 0 -35 0 0 -115z"></path><path id="pSaaiMf4s" d="M5760 1095 l0 -115 30 0 c24 0 30 4 30 21 0 21 1 21 26 -5 35 -34 54 -34 54 2 0 21 -8 30 -33 42 -32 15 -32 16 -35 93 l-3 77 -34 0 -35 0 0 -115z"></path><path id="phK0gbCMW" d="M2475 926 c-27 -20 -15 -51 20 -51 23 0 31 5 33 22 4 29 -28 47 -53 29z"></path></g></g><g id="l2USh2aPM6ML13M34FV6Bfm" fill="rgb(0,173,254)" style="transform: none;"><g><path id="pOukbJ1tq" d="M82 1603 c30 -70 609 -1213 614 -1214 3 0 73 135 154 301 l149 300 -34 0 c-37 0 -53 -17 -99 -107 -14 -28 -30 -54 -36 -58 -6 -4 -65 -8 -133 -11 -145 -5 -164 1 -182 63 -11 38 -57 127 -123 242 l-26 44 161 -5 c89 -3 168 -1 177 4 17 10 23 58 6 58 -5 0 -10 -6 -11 -12 0 -7 -47 80 -105 195 l-104 207 -206 0 c-113 0 -204 -3 -202 -7z"></path><path id="pIHoDxITA" d="M884 1579 c-15 -30 -15 -32 12 -60 33 -34 64 -37 119 -9 51 26 156 27 203 3 18 -10 49 -40 70 -68 30 -40 44 -51 71 -53 18 -2 38 1 43 6 6 6 -9 47 -41 111 l-51 101 -205 0 -204 0 -17 -31z"></path><path id="pJz6d5ZL8" d="M1615 1410 c-93 -188 -115 -222 -115 -185 0 13 -7 14 -37 8 -21 -4 -118 -7 -215 -6 l-178 2 0 -35 c0 -36 13 -45 25 -16 5 12 38 -44 116 -200 87 -175 113 -218 129 -218 15 0 20 7 20 25 0 14 38 101 85 194 99 199 76 185 304 182 73 -1 73 2 10 -100 -113 -185 -139 -233 -139 -266 0 -31 3 -35 35 -41 20 -3 37 -5 39 -3 2 2 100 196 219 432 l216 427 -207 0 -207 0 -100 -200z m331 108 c18 -8 20 -15 14 -42 -10 -43 -69 -175 -70 -154 0 23 -31 88 -42 88 -4 0 -8 9 -8 20 0 11 -4 20 -8 20 -4 0 -18 21 -30 46 l-23 46 73 -7 c40 -3 83 -11 94 -17z"></path><path id="p83XAofPm" d="M1460 486 c0 -4 12 -30 26 -58 l26 -51 20 47 c12 25 19 48 17 51 -8 8 -89 18 -89 11z"></path></g></g><g id="l5NOV3OCeEKOaL1U3grE7qi" fill="rgb(0,194,255)" style="transform: none;"><g><path id="pIMfI2N0k" d="M790 1391 c-66 -134 -101 -193 -117 -200 -13 -6 -23 -7 -23 -3 0 4 -30 6 -68 6 -37 -1 -107 -2 -157 -3 -104 -2 -128 -10 -103 -38 27 -31 142 -246 159 -298 11 -31 26 -55 41 -62 31 -17 295 -16 327 0 12 7 39 44 60 82 20 39 46 74 58 79 12 6 43 56 78 126 l58 117 142 -5 c166 -5 255 3 255 24 0 7 -23 61 -52 118 -43 88 -55 103 -69 96 -17 -10 -36 6 -77 66 -34 49 -76 64 -184 64 -72 0 -102 -4 -130 -19 l-37 -18 -27 28 c-15 16 -30 29 -34 29 -3 0 -48 -85 -100 -189z"></path><path id="p1Gjw8yDXO" d="M1740 1554 c0 -24 51 -134 62 -134 5 0 7 -4 3 -9 -3 -5 1 -16 9 -24 8 -8 12 -17 9 -21 -4 -3 -1 -6 6 -6 7 0 9 -4 6 -10 -3 -5 -1 -10 5 -10 6 0 8 -4 5 -10 -3 -5 -1 -10 5 -10 6 0 9 -4 6 -8 -3 -5 6 -25 20 -46 24 -36 44 -40 44 -10 0 9 14 48 31 87 18 40 38 97 45 127 12 52 12 56 -8 71 -21 16 -108 29 -200 29 -38 0 -48 -4 -48 -16z"></path><path id="p1FQZomVYn" d="M1567 1193 c-3 -2 -18 -5 -34 -5 -28 -1 -34 -10 -116 -175 -48 -95 -87 -184 -87 -197 0 -13 -5 -26 -11 -28 -11 -4 141 -321 158 -331 4 -2 20 -7 35 -11 27 -6 29 -3 113 163 l84 170 -29 6 c-17 4 -30 8 -30 11 0 3 27 49 123 209 42 71 97 166 97 170 0 13 -291 30 -303 18z"></path></g></g></svg>