<svg class="img-fluid" id="outputsvg" xmlns="http://www.w3.org/2000/svg" style="transform: matrix(1, 0, 0, 1, 0, 0); transform-origin: 50% 50%; cursor: move; max-height: none; transition: none 0s ease 0s;" width="400" height="184" viewBox="0 0 4000 1840"><g id="l1vwSRw4s5zyGLwY31P8m2W" fill="rgb(1,137,253)" style="transform: none;"><g><path id="pH4UhRtWj" d="M1397 1823 c-15 -14 -5 -35 71 -155 43 -68 140 -220 214 -338 857 -1362 836 -1330 857 -1330 12 0 261 398 261 417 0 9 -50 95 -111 192 -116 182 -405 640 -635 1006 l-133 210 -258 3 c-143 1 -262 -1 -266 -5z"></path><path id="pRndbenw5" d="M3117 1778 c-275 -433 -501 -796 -504 -813 -6 -29 236 -409 262 -413 16 -2 80 94 350 523 182 289 358 569 393 623 34 53 61 104 59 112 -2 13 -41 15 -264 18 l-262 2 -34 -52z"></path></g></g><g id="l2F2vWH5qo7K60MjxpFdI3G" fill="rgb(126,0,255)" style="transform: none;"><g><path id="peCnGsaGj" d="M330 1806 c0 -14 94 -173 223 -377 123 -195 232 -370 243 -389 10 -19 22 -37 25 -40 6 -5 82 -124 352 -555 143 -228 162 -254 180 -255 13 0 457 701 457 721 0 12 -217 360 -248 399 -10 12 -24 19 -32 15 -9 -3 -49 -59 -90 -125 -41 -66 -81 -122 -88 -125 -13 -5 -21 7 -193 280 -53 83 -141 223 -198 313 l-103 162 -264 0 -264 0 0 -24z"></path></g></g></svg>